<svg id="visual" viewBox="0 0 540 960" width="540" height="960" xmlns="http://www.w3.org/2000/svg" xmlns:xlink="http://www.w3.org/1999/xlink" version="1.1"><rect x="0" y="0" width="540" height="960" fill="#131212"></rect><defs><linearGradient id="grad1_0" x1="0%" y1="100%" x2="100%" y2="0%"><stop offset="30%" stop-color="#000000" stop-opacity="1"></stop><stop offset="70%" stop-color="#000000" stop-opacity="1"></stop></linearGradient></defs><defs><linearGradient id="grad1_1" x1="0%" y1="100%" x2="100%" y2="0%"><stop offset="30%" stop-color="#000000" stop-opacity="1"></stop><stop offset="70%" stop-color="#131212" stop-opacity="1"></stop></linearGradient></defs><defs><linearGradient id="grad2_0" x1="0%" y1="100%" x2="100%" y2="0%"><stop offset="30%" stop-color="#000000" stop-opacity="1"></stop><stop offset="70%" stop-color="#000000" stop-opacity="1"></stop></linearGradient></defs><defs><linearGradient id="grad2_1" x1="0%" y1="100%" x2="100%" y2="0%"><stop offset="30%" stop-color="#131212" stop-opacity="1"></stop><stop offset="70%" stop-color="#000000" stop-opacity="1"></stop></linearGradient></defs><g transform="translate(540, 960)"><path d="M-486 0C-483.8 -36 -481.5 -72 -438.4 -87.2C-395.3 -102.4 -311.4 -96.9 -293.8 -121.7C-276.2 -146.5 -324.9 -201.5 -305.1 -203.9C-285.4 -206.2 -197.1 -155.9 -190.9 -190.9C-184.7 -226 -260.7 -346.4 -270 -404.1C-279.3 -461.8 -222.1 -456.8 -176 -425C-130 -393.2 -95.2 -334.6 -67.7 -340.3C-40.2 -346 -20.1 -416 0 -486L0 0Z" fill="#0b0a0a"></path><path d="M-243 0C-241.9 -18 -240.8 -36 -219.2 -43.6C-197.7 -51.2 -155.7 -48.5 -146.9 -60.8C-138.1 -73.2 -162.5 -100.8 -152.6 -101.9C-142.7 -103.1 -98.5 -77.9 -95.5 -95.5C-92.4 -113 -130.3 -173.2 -135 -202C-139.7 -230.9 -111 -228.4 -88 -212.5C-65 -196.6 -47.6 -167.3 -33.8 -170.2C-20.1 -173 -10.1 -208 0 -243L0 0Z" fill="#000000"></path></g><g transform="translate(0, 0)"><path d="M486 0C419.2 24.8 352.3 49.5 306 60.9C259.7 72.2 233.9 70.2 267.9 111C301.9 151.8 395.7 235.4 404.1 270C412.5 304.7 335.5 290.3 285.7 285.7C235.8 281 213 286 187.8 281C162.6 276.1 134.9 261.2 120.2 290.1C105.5 319 103.7 391.6 85.8 431.5C68 471.5 34 478.7 0 486L0 0Z" fill="#0b0a0a"></path><path d="M243 0C209.6 12.4 176.2 24.8 153 30.4C129.8 36.1 117 35.1 134 55.5C151 75.9 197.8 117.7 202 135C206.2 152.3 167.8 145.2 142.8 142.8C117.9 140.5 106.5 143 93.9 140.5C81.3 138 67.4 130.6 60.1 145C52.7 159.5 51.9 195.8 42.9 215.8C34 235.7 17 239.4 0 243L0 0Z" fill="#000000"></path></g></svg>