<svg id="visual" viewBox="0 0 540 960" width="540" height="960" xmlns="http://www.w3.org/2000/svg" xmlns:xlink="http://www.w3.org/1999/xlink" version="1.1"><rect x="0" y="0" width="540" height="960" fill="#131212"></rect><defs><linearGradient id="grad1_0" x1="0%" y1="100%" x2="100%" y2="0%"><stop offset="30%" stop-color="#131212" stop-opacity="1"></stop><stop offset="70%" stop-color="#131212" stop-opacity="1"></stop></linearGradient></defs><defs><linearGradient id="grad2_0" x1="0%" y1="100%" x2="100%" y2="0%"><stop offset="30%" stop-color="#131212" stop-opacity="1"></stop><stop offset="70%" stop-color="#131212" stop-opacity="1"></stop></linearGradient></defs><g transform="translate(540, 960)"><path d="M-486 0C-437.1 -19.9 -388.2 -39.9 -357.5 -56.6C-326.9 -73.4 -314.6 -86.9 -299.6 -97.3C-284.6 -107.7 -266.9 -115 -268.2 -136.7C-269.5 -158.3 -289.7 -194.4 -275.9 -200.4C-262 -206.5 -214 -182.5 -218.5 -218.5C-222.9 -254.5 -279.8 -350.6 -285.7 -393.2C-291.5 -435.8 -246.3 -424.9 -206.6 -405.4C-166.8 -385.9 -132.5 -357.8 -106.3 -327.2C-80.1 -296.5 -62.2 -263.3 -45.8 -289.4C-29.5 -315.4 -14.7 -400.7 0 -486L0 0Z" fill="#000000"></path></g><g transform="translate(0, 0)"><path d="M486 0C425.5 17.1 365 34.1 361.5 57.3C358 80.4 411.4 109.6 436.5 141.8C461.6 174.1 458.4 209.4 415.2 211.6C372 213.7 288.8 182.8 269.4 195.7C250 208.6 294.3 265.3 309.7 309.7C325.1 354.1 311.7 386.1 285.7 393.2C259.7 400.2 221.2 382.3 191.6 376C162 369.7 141.3 374.9 120.5 370.9C99.7 366.9 78.9 353.7 58.8 371.4C38.7 389 19.4 437.5 0 486L0 0Z" fill="#000000"></path></g></svg>